<?xml version="1.0" encoding="utf-8"?>
<!-- Generator: Adobe Illustrator 16.0.3, SVG Export Plug-In . SVG Version: 6.00 Build 0)  -->
<!DOCTYPE svg PUBLIC "-//W3C//DTD SVG 1.1//EN" "http://www.w3.org/Graphics/SVG/1.1/DTD/svg11.dtd">
<svg version="1.1" xmlns="http://www.w3.org/2000/svg" xmlns:xlink="http://www.w3.org/1999/xlink" x="0px" y="0px" width="2500px"
	 height="2500px" viewBox="0 0 2500 2500" enable-background="new 0 0 2500 2500" xml:space="preserve">
<g id="Ebene_1">
	<rect x="-42.619" y="-40.809" fill="#BBD5DB" stroke="#000000" stroke-miterlimit="10" width="2673.268" height="2625.261"/>
	<g id="Ebene_3">
		
			<linearGradient id="SVGID_1_" gradientUnits="userSpaceOnUse" x1="1851.1672" y1="1722.4109" x2="1464.4172" y2="1722.4109" gradientTransform="matrix(1 0 0 1 -395.1992 -340.8008)">
			<stop  offset="0" style="stop-color:#FFFFFF"/>
			<stop  offset="0.6398" style="stop-color:#6A6A6A"/>
		</linearGradient>
		<circle fill="url(#SVGID_1_)" stroke="#000000" stroke-miterlimit="10" cx="1257.129" cy="1381.61" r="193.375"/>
	</g>
	
		<rect x="633.008" y="530.579" display="none" fill="#FFFFFF" fill-opacity="0.9" stroke="#000000" stroke-miterlimit="10" width="1840" height="1654"/>
	<g id="Ebene_1_1_">
		<circle fill="#FFFFFF" stroke="#000000" stroke-miterlimit="10" cx="1256.95" cy="1380.094" r="166.365"/>
	</g>
	<g id="Ebene_9">
		
			<linearGradient id="SVGID_2_" gradientUnits="userSpaceOnUse" x1="1769.5364" y1="1718.8416" x2="1524.2272" y2="1717.5679" gradientTransform="matrix(1 0 0 1 -395.1992 -340.8008)">
			<stop  offset="0" style="stop-color:#FFFFFF"/>
			<stop  offset="0.6398" style="stop-color:#000000"/>
		</linearGradient>
		<ellipse fill="url(#SVGID_2_)" stroke="#000000" stroke-miterlimit="10" cx="1254.723" cy="1377.42" rx="122.655" ry="126.936"/>
		<g>
			<path stroke="#000000" stroke-miterlimit="10" d="M1510.974,1365.866c0,0.979-0.901,1.469-2.7,1.469
				c-1.416,0-4.788-0.657-10.111-1.974c-2.484,1.418-3.728,3.203-3.728,5.353c0,1.038,0.357,1.755,1.074,2.149
				c1.038-0.088,1.821-0.131,2.348-0.131c1.521,0,2.282,0.183,2.282,0.549c0,0.235-0.403,0.351-1.208,0.351
				c-1.025,0-2.139-0.146-3.339-0.438c-1.627,0.235-3.514,0.864-5.665,1.888c-5.479,2.616-8.218,6.011-8.218,10.179
				c0,2.765,1.494,4.521,4.478,5.266c-0.541-0.893-0.813-1.924-0.813-3.094c0-2.881,1.473-5.535,4.416-7.963s6.163-3.64,9.66-3.64
				c1.613,0,2.892,0.394,3.847,1.183c0.95,0.79,1.427,1.851,1.427,3.181c0,2.852-1.567,5.423-4.703,7.71
				c-3.132,2.291-6.663,3.434-10.584,3.434c-0.792,0-1.533-0.044-2.219-0.131c1.404,1.888,3.495,2.829,6.261,2.829
				c1.718,0,3.115-0.256,4.202-0.768l0.263-0.044c0.088,0.027,0.132,0.088,0.132,0.176c0,0.203-0.543,0.421-1.627,0.646
				c-1.085,0.228-2.073,0.341-2.967,0.341c-3.062,0-5.401-1.104-7.012-3.313c-2.23-0.499-3.978-1.344-5.238-2.534
				c-1.262-1.192-1.893-2.578-1.893-4.158c0-2.119,0.878-4.106,2.633-5.955c1.757-1.851,4.095-3.251,7.02-4.2
				c1.768-0.587,3.796-1.009,6.077-1.272c-1.623-0.688-2.436-1.776-2.436-3.269c0-1.916,1.185-3.517,3.554-4.804
				c-3.393-0.821-6.192-1.229-8.4-1.229c-4.329,0-8.017,1.084-11.069,3.246c-3.048,2.165-4.571,4.783-4.571,7.854
				c0,1.375,0.402,2.555,1.205,3.534c0.805,0.979,1.771,1.47,2.896,1.47c0.775,0,1.164-0.124,1.164-0.375
				c0-0.131-0.141-0.176-0.418-0.131c-0.777,0-1.164-0.359-1.164-1.075c0-0.41,0.172-0.761,0.516-1.051
				c0.344-0.293,0.757-0.438,1.239-0.438c0.937,0,1.403,0.453,1.403,1.358c0,0.602-0.267,1.108-0.799,1.523
				c-0.535,0.419-1.181,0.625-1.941,0.625c-1.359,0-2.518-0.609-3.477-1.831s-1.438-2.694-1.438-4.42
				c0-2.589,1.127-4.965,3.377-7.13c2.676-2.573,6.436-3.858,11.275-3.858c2.692,0,6.273,0.549,10.751,1.644
				c2.019-0.979,4.364-1.469,7.04-1.469c1.989,0,3.686,0.268,5.092,0.8C1510.274,1364.458,1510.974,1365.105,1510.974,1365.866z
				 M1504.325,1380.014c0-1.051-0.42-1.923-1.252-2.608c-0.835-0.687-1.891-1.03-3.162-1.03c-3.149,0-6.222,1.305-9.225,3.916
				c-3.004,2.608-4.502,5.275-4.502,7.995c0,0.79,0.243,1.594,0.726,2.413c0.848,0.161,1.631,0.243,2.35,0.243
				c3.453,0,6.83-1.195,10.124-3.588C1502.679,1384.964,1504.325,1382.516,1504.325,1380.014z M1510.512,1365.821
				c0-0.569-0.602-1.074-1.81-1.514c-1.206-0.438-2.593-0.657-4.157-0.657c-2.152,0-4.11,0.469-5.879,1.405
				c3.875,1.258,7.136,1.886,9.783,1.886C1509.824,1366.94,1510.512,1366.569,1510.512,1365.821z"/>
		</g>
		<g>
			<path stroke="#000000" stroke-miterlimit="10" d="M1279.062,1591.209c0,0.702-0.706,1.717-2.117,3.039
				c-1.41,1.323-3.134,2.594-5.167,3.808c-0.262,0.833-0.648,2.346-1.162,4.541c-0.819,3.437-1.572,5.873-2.258,7.316
				c-0.689,1.439-1.82,2.906-3.402,4.396c-4.563,4.314-9.674,6.474-15.334,6.474c-1.623,0-3.054-0.271-4.299-0.813
				c-0.689,1.35-1.031,2.52-1.031,3.516c0,1.261,0.42,2.418,1.261,3.471c0.087,0.087,0.131,0.19,0.131,0.307
				c0,0.117-0.073,0.176-0.219,0.176c-0.338,0-0.703-0.453-1.094-1.36c-0.389-0.907-0.585-1.759-0.585-2.55
				c0-1.14,0.375-2.401,1.119-3.776c-3.054-1.581-4.583-4.294-4.583-8.139c0-2.474,0.731-4.928,2.193-7.37
				c1.462-2.443,3.518-4.646,6.165-6.605c3.378-2.483,6.719-3.727,10.025-3.727c1.799,0,3.229,0.504,4.289,1.514
				c1.06,1.007,1.59,2.376,1.59,4.102c0,0.92-0.132,1.879-0.395,2.874c2.149-1.434,4.052-2.647,5.704-3.64
				c1.053-2.296,2.376-4.271,3.97-5.923c1.595-1.652,2.983-2.479,4.169-2.479
				C1278.719,1590.354,1279.062,1590.638,1279.062,1591.209z M1264.189,1599.436c0-1.537-0.487-2.771-1.458-3.707
				c-0.972-0.937-2.254-1.405-3.852-1.405c-3.934,0-7.74,2.048-11.417,6.143c-3.678,4.095-5.518,8.336-5.518,12.724
				c0,2.881,1.061,4.928,3.181,6.142c0.997-1.638,2.422-3.429,4.278-5.372c-0.963-0.834-1.448-1.828-1.448-2.983
				c0-0.877,0.278-1.628,0.833-2.25c0.556-0.623,1.227-0.934,2.018-0.934c0.98,0,1.471,0.455,1.471,1.361
				c0,0.468-0.184,0.871-0.549,1.216c-0.368,0.345-0.797,0.517-1.296,0.517c-0.716,0-1.075-0.344-1.075-1.031
				c0-0.219,0.073-0.455,0.219-0.701c0.061-0.191,0.088-0.301,0.088-0.332c0-0.087-0.044-0.131-0.132-0.131
				c-0.246,0-0.504,0.263-0.767,0.789s-0.396,1.048-0.396,1.558c0,0.965,0.446,1.828,1.338,2.589
				c2.939-3.099,7.583-6.72,13.93-10.857C1264.006,1601.485,1264.189,1600.373,1264.189,1599.436z M1269.629,1599.349
				c-1.711,1.082-3.583,2.311-5.615,3.683c-0.964,3.101-2.657,5.82-5.08,8.163c-2.419,2.34-4.741,3.508-6.964,3.508
				c-0.673,0-1.411-0.176-2.215-0.524c-1.653,1.71-3.055,3.508-4.212,5.396c1.199,0.541,2.56,0.811,4.078,0.811
				c2.749,0,5.413-0.779,7.985-2.339c2.574-1.556,4.783-3.717,6.625-6.481c0.863-1.286,1.543-2.483,2.04-3.587
				s1.302-3.186,2.413-6.242C1268.949,1600.978,1269.264,1600.183,1269.629,1599.349z M1263.42,1603.385l-1.448,0.989
				c-5.511,3.802-9.491,6.969-11.932,9.498c0.612,0.321,1.271,0.48,1.975,0.48c2.048,0,4.19-1.075,6.427-3.225
				C1260.68,1608.978,1262.338,1606.397,1263.42,1603.385z M1278.645,1591.253c0-0.351-0.203-0.526-0.613-0.526
				c-0.979,0-2.073,0.679-3.278,2.03c-1.208,1.352-2.14,2.936-2.798,4.747c1.932-1.184,3.529-2.37,4.793-3.552
				C1278.01,1592.766,1278.645,1591.869,1278.645,1591.253z"/>
		</g>
		<g>
			<path stroke="#000000" stroke-miterlimit="10" d="M1061.709,1358.249c0,0.365-0.227,0.548-0.68,0.548h-0.308
				c-0.453-0.059-1.023-0.088-1.709-0.088c-3.366,0-7.422,1.515-12.173,4.543c-2.705,1.728-4.972,3.499-6.798,5.313
				c-1.887,1.855-5.066,5.506-9.541,10.947c-5.41,6.57-9.636,10.971-12.676,13.212c-1.009,0.744-1.594,1.119-1.757,1.119
				c-0.079,0-0.126-0.029-0.142-0.088c0-0.017,0.212-0.236,0.636-0.658c1.86-1.888,3.776-5.562,5.753-11.021
				c1.771-4.874,3.171-8.429,4.206-10.671c1.032-2.239,2.131-4.105,3.304-5.596c0.278-0.352,0.417-0.551,0.417-0.595
				c-0.102-0.026-0.212,0.029-0.328,0.176l-0.22,0.22l-0.551,0.683c-0.951,1.184-3.18,4.09-6.69,8.714
				c-5.543,7.511-10.406,12.909-14.589,16.202c-2.25,1.756-3.561,2.634-3.925,2.634c-0.08-0.029-0.128-0.073-0.143-0.132
				c0-0.044,0.095-0.148,0.285-0.308c2.869-2.619,5.612-6.55,8.238-11.794c2.625-5.243,3.937-9.432,3.937-12.563
				c0-2.137-0.517-3.83-1.557-5.081c-1.039-1.251-2.457-1.876-4.256-1.876c-3.788,0-7.549,2.115-11.286,6.341
				c-3.737,4.225-5.605,8.49-5.605,12.788c0,1.783,0.486,3.227,1.459,4.321c0.971,1.097,2.241,1.646,3.806,1.646
				c3.305,0,6.435-2.258,9.389-6.779c1.916-2.939,2.874-5.555,2.874-7.854c0-1.082-0.268-1.952-0.801-2.609
				c-0.534-0.656-1.239-0.987-2.117-0.987c-0.526,0-1.04,0.128-1.537,0.384c-0.498,0.256-0.744,0.515-0.744,0.778
				c0,0.088,0.044,0.132,0.13,0.132c0.044,0,0.117-0.015,0.219-0.044c0.368-0.059,0.607-0.088,0.726-0.088
				c0.656,0,0.987,0.375,0.987,1.119c0,0.455-0.176,0.845-0.527,1.175c-0.351,0.328-0.76,0.493-1.228,0.493
				c-0.907,0-1.359-0.49-1.359-1.47c0-0.776,0.334-1.452,1.009-2.029c0.673-0.578,1.448-0.866,2.326-0.866
				c1.007,0,1.815,0.365,2.423,1.097c0.608,0.73,0.913,1.703,0.913,2.917c0,2.75-1.26,5.851-3.773,9.302
				c-2.793,3.803-5.776,5.704-8.95,5.704c-1.843,0-3.36-0.708-4.552-2.121c-1.191-1.413-1.787-3.196-1.787-5.349
				c0-2.018,0.537-4.122,1.612-6.315c1.075-2.191,2.548-4.188,4.42-5.984c4.197-4.077,8.226-6.116,12.087-6.116
				c2.267,0,4.171,0.891,5.717,2.673c1.54,1.782,2.314,3.973,2.314,6.573c0,2.796-1.156,6.188-3.466,10.179
				c-2.311,3.989-5.111,7.419-8.402,10.287c-0.321,0.292-0.48,0.455-0.48,0.482c0.015,0.061,0.043,0.088,0.087,0.088
				c0.454,0,1.909-1.271,4.367-3.817c3.483-3.615,8.185-9.325,14.109-17.125c1.698-2.239,3.366-4.243,5.004-6.014
				c1.639-1.77,2.65-2.656,3.028-2.656c0.088,0,0.132,0.048,0.132,0.143c0,0.044-0.044,0.117-0.132,0.22
				c-0.919,1.229-1.668,2.479-2.238,3.752c-0.645,1.449-1.619,4.17-2.919,8.164c-1.438,4.359-2.74,7.683-3.908,9.963
				c-1.229,2.355-2.774,4.483-4.633,6.386c-0.029,0.06-0.059,0.111-0.088,0.156c0.015,0.043,0.044,0.07,0.088,0.087
				c0.248,0,1.294-0.959,3.137-2.876c1.287-1.332,4.885-5.573,10.794-12.726c3.056-3.701,5.791-6.623,8.206-8.766
				c2.413-2.143,5.126-4.057,8.136-5.739c4.109-2.312,7.693-3.467,10.749-3.467
				C1061.19,1357.635,1061.709,1357.839,1061.709,1358.249z"/>
		</g>
		<g>
			<path stroke="#000000" stroke-miterlimit="10" d="M1295.384,1146.326c0,1.228-0.137,1.843-0.409,1.843
				c-0.115,0-0.173-0.044-0.173-0.132c0-0.161,0.028-0.418,0.088-0.769c0.058-0.349,0.088-0.622,0.088-0.811
				c0-2.016-0.717-3.669-2.149-4.962c-1.434-1.292-3.262-1.94-5.484-1.94c-4.402,0-8.836,2.862-13.297,8.582
				c-1.403,1.784-4.129,6.083-8.18,12.903c-1.17,1.976-2.373,3.734-3.607,5.279c-1.236,1.542-2.051,2.315-2.445,2.315
				c-0.229,0-0.342-0.112-0.342-0.331c0-0.278,0.332-0.578,0.992-0.899c1.285-0.6,1.934-2.094,1.934-4.479
				c0-0.454-0.031-1.207-0.088-2.262c-0.148-2.604-0.221-4.852-0.221-6.739c0-3.146,0.304-5.734,0.912-7.761
				c0.607-2.029,1.624-3.817,3.046-5.37c0.026-0.044,0.058-0.103,0.087-0.176c-0.453-0.058-1.455,0.871-3.008,2.787
				c-0.82,1.008-1.555,2.056-2.206,3.138c-0.651,1.082-2.345,4.096-5.079,9.041c-2.342,4.229-5.069,7.494-8.186,9.798
				c-3.116,2.304-6.364,3.455-9.741,3.455c-1.902,0-3.472-0.423-4.707-1.271c-1.237-0.848-1.853-1.939-1.853-3.27
				c0-0.762,0.218-1.401,0.657-1.92c0.438-0.517,0.987-0.778,1.645-0.778c0.952,0,1.426,0.468,1.426,1.404
				c0,0.483-0.155,0.897-0.464,1.24c-0.31,0.344-0.687,0.516-1.128,0.516c-0.721,0-1.083-0.395-1.083-1.185
				c0-0.29-0.058-0.438-0.176-0.438c-0.236,0-0.354,0.402-0.354,1.209c0,1.197,0.575,2.183,1.724,2.95
				c1.148,0.768,2.607,1.152,4.38,1.152c3.396,0,6.546-1.279,9.453-3.842c2.905-2.561,6.232-6.993,9.98-13.298
				c3.059-5.135,5.505-8.508,7.333-10.117c1.26-1.097,2.064-1.646,2.416-1.646c0.059,0.014,0.095,0.044,0.109,0.088
				c0,0.029-0.096,0.161-0.285,0.396c-0.922,1.244-1.502,2.564-1.744,3.963c-0.243,1.397-0.406,4.38-0.494,8.947
				c-0.117,5.576-0.805,9.563-2.063,11.966c-0.027,0-0.043,0.029-0.043,0.087l0.043,0.044c0.263,0,2.479-3.672,6.646-11.017
				c3.04-5.372,5.977-9.25,8.804-11.642c2.829-2.394,5.881-3.588,9.157-3.588c2.339,0,4.27,0.712,5.8,2.136
				C1294.619,1142.349,1295.384,1144.149,1295.384,1146.326z M1260.24,1144.788c0,0.323-0.418,0.953-1.252,1.892
				c-1.258,1.422-2.471,2.134-3.639,2.134c-0.805,0-1.487-0.297-2.041-0.889s-0.833-1.318-0.833-2.183
				c0-0.833,0.3-1.835,0.901-3.005c0.744-1.462,1.119-2.494,1.119-3.095c0-0.744-0.352-1.346-1.054-1.799s-1.623-0.68-2.765-0.68
				c-3.261,0-6.325,1.314-9.191,3.947c-2.868,2.632-4.301,5.433-4.301,8.402c0,1.536,0.472,2.788,1.417,3.761
				c0.944,0.974,2.155,1.459,3.634,1.459c1.315,0,2.651-0.379,4.006-1.133c1.355-0.754,2.448-1.726,3.282-2.916
				c0.058-0.073,0.102-0.11,0.131-0.11c0.112,0,0.165,0.066,0.165,0.197c0,0.294-0.469,0.858-1.405,1.694
				c-1.931,1.745-4.022,2.617-6.273,2.617c-1.581,0-2.867-0.513-3.86-1.538c-0.993-1.025-1.494-2.355-1.494-3.991
				c0-3.174,1.467-6.091,4.399-8.755c2.933-2.66,6.14-3.99,9.62-3.99c1.434,0,2.557,0.358,3.365,1.075
				c0.814,0.717,1.221,1.704,1.221,2.961c0,0.936-0.47,2.362-1.406,4.278c-0.321,0.673-0.482,1.207-0.482,1.602
				c0,1.111,0.602,1.669,1.801,1.669c0.717,0,1.518-0.345,2.402-1.036c0.885-0.689,1.598-1.532,2.139-2.529
				c0.071-0.148,0.146-0.22,0.22-0.22C1260.182,1144.613,1260.24,1144.671,1260.24,1144.788z"/>
		</g>
	</g>
	<g id="Ebene_2">
	</g>
	<g id="Ebene_4">
		
			<linearGradient id="SVGID_3_" gradientUnits="userSpaceOnUse" x1="1799.0305" y1="1719.4421" x2="1478.5934" y2="1719.4421" gradientTransform="matrix(1 0 0 1 -395.1992 -340.8008)">
			<stop  offset="0" style="stop-color:#FFFFFF"/>
			<stop  offset="0.6398" style="stop-color:#6A6A6A"/>
		</linearGradient>
		<polygon fill="url(#SVGID_3_)" stroke="#000000" stroke-miterlimit="10" points="1258.996,1581.59 1223.127,1406.613 
			1054.692,1379.998 1220.212,1344.532 1256.283,1175.692 1287.573,1344.087 1460.588,1377.285 1290.944,1407.024 		"/>
	</g>
	<g id="Ebene_8">
		<g>
			
				<linearGradient id="SVGID_4_" gradientUnits="userSpaceOnUse" x1="1508.387" y1="1573.6208" x2="1489.49" y2="1595.5488" gradientTransform="matrix(1 0 0 1 -395.1992 -340.8008)">
				<stop  offset="0" style="stop-color:#FFFFFF"/>
				<stop  offset="0.6398" style="stop-color:#000000"/>
			</linearGradient>
			<polygon fill="url(#SVGID_4_)" points="1092.162,1236.284 1107.308,1239.642 1122.456,1242.999 1112.239,1254.353 
				1102.021,1265.705 1097.092,1250.996 			"/>
			
				<linearGradient id="SVGID_5_" gradientUnits="userSpaceOnUse" x1="1532.8098" y1="1594.6658" x2="1513.913" y2="1616.5935" gradientTransform="matrix(1 0 0 1 -395.1992 -340.8008)">
				<stop  offset="0" style="stop-color:#FFFFFF"/>
				<stop  offset="0.6398" style="stop-color:#000000"/>
			</linearGradient>
			<polygon fill="url(#SVGID_5_)" points="1102.04,1265.631 1112.132,1254.326 1122.226,1243.021 1131.452,1261.418 
				1140.679,1279.812 1121.36,1272.72 			"/>
		</g>
		<g>
			
				<linearGradient id="SVGID_6_" gradientUnits="userSpaceOnUse" x1="2101.7444" y1="931.4871" x2="2082.8452" y2="953.4172" gradientTransform="matrix(-0.0206 0.9998 -0.9998 -0.0206 2389.5298 -836.2585)">
				<stop  offset="0" style="stop-color:#FFFFFF"/>
				<stop  offset="0.6398" style="stop-color:#000000"/>
			</linearGradient>
			<polygon fill="url(#SVGID_6_)" points="1411.901,1224.783 1408.235,1239.858 1404.564,1254.931 1393.426,1244.486 
				1382.284,1234.034 1397.094,1229.407 			"/>
			
				<linearGradient id="SVGID_7_" gradientUnits="userSpaceOnUse" x1="2126.1653" y1="952.533" x2="2107.2681" y2="974.4611" gradientTransform="matrix(-0.0206 0.9998 -0.9998 -0.0206 2389.5298 -836.2585)">
				<stop  offset="0" style="stop-color:#FFFFFF"/>
				<stop  offset="0.6398" style="stop-color:#000000"/>
			</linearGradient>
			<polygon fill="url(#SVGID_7_)" points="1382.358,1234.056 1393.453,1244.378 1404.549,1254.701 1385.965,1263.547 
				1367.386,1272.395 1374.871,1253.224 			"/>
		</g>
		<g>
			
				<linearGradient id="SVGID_8_" gradientUnits="userSpaceOnUse" x1="1621.261" y1="522.1633" x2="1602.3639" y2="544.0913" gradientTransform="matrix(-0.9963 0.0863 -0.0863 -0.9963 3069.6326 1903.7076)">
				<stop  offset="0" style="stop-color:#FFFFFF"/>
				<stop  offset="0.6398" style="stop-color:#000000"/>
			</linearGradient>
			<polygon fill="url(#SVGID_8_)" points="1429.953,1518.125 1414.573,1516.088 1399.195,1514.051 1408.389,1501.856 
				1417.592,1489.665 1423.772,1503.893 			"/>
			
				<linearGradient id="SVGID_9_" gradientUnits="userSpaceOnUse" x1="1645.6829" y1="543.2117" x2="1626.786" y2="565.1395" gradientTransform="matrix(-0.9963 0.0863 -0.0863 -0.9963 3069.6326 1903.7076)">
				<stop  offset="0" style="stop-color:#FFFFFF"/>
				<stop  offset="0.6398" style="stop-color:#000000"/>
			</linearGradient>
			<polygon fill="url(#SVGID_9_)" points="1417.576,1489.739 1408.501,1501.875 1399.42,1514.008 1388.639,1496.478 
				1377.858,1478.949 1397.721,1484.344 			"/>
		</g>
		<g>
			
				<linearGradient id="SVGID_10_" gradientUnits="userSpaceOnUse" x1="1359.5051" y1="1425.4578" x2="1340.6068" y2="1447.3873" gradientTransform="matrix(-0.0161 -0.9999 0.9999 -0.0161 -296.1226 2907.4951)">
				<stop  offset="0" style="stop-color:#FFFFFF"/>
				<stop  offset="0.6398" style="stop-color:#000000"/>
			</linearGradient>
			<polygon fill="url(#SVGID_10_)" points="1111.104,1546.139 1114.218,1530.942 1117.333,1515.743 1128.848,1525.774 
				1140.364,1535.809 1125.735,1540.975 			"/>
			
				<linearGradient id="SVGID_11_" gradientUnits="userSpaceOnUse" x1="1383.926" y1="1446.5037" x2="1365.0308" y2="1468.4296" gradientTransform="matrix(-0.0161 -0.9999 0.9999 -0.0161 -296.1226 2907.4951)">
				<stop  offset="0" style="stop-color:#FFFFFF"/>
				<stop  offset="0.6398" style="stop-color:#000000"/>
			</linearGradient>
			<polygon fill="url(#SVGID_11_)" points="1140.289,1535.791 1128.823,1525.882 1117.358,1515.971 1135.604,1506.451 
				1153.847,1496.93 1147.066,1516.362 			"/>
		</g>
	</g>
	<g id="Ebene_5">
		
			<linearGradient id="SVGID_12_" gradientUnits="userSpaceOnUse" x1="1607.8547" y1="1642.4431" x2="1572.2595" y2="1687.6284" gradientTransform="matrix(1 0 0 1 -395.1992 -340.8008)">
			<stop  offset="0" style="stop-color:#FFFFFF"/>
			<stop  offset="0.6398" style="stop-color:#000000"/>
		</linearGradient>
		<polygon fill="url(#SVGID_12_)" stroke="#000000" stroke-miterlimit="10" points="1240.818,1333.157 1224.818,1353.873 
			1208.814,1374.591 1183.574,1338.557 1158.334,1302.523 1199.577,1317.842 		"/>
		
			<linearGradient id="SVGID_13_" gradientUnits="userSpaceOnUse" x1="1731.5813" y1="1686.5525" x2="1694.1873" y2="1648.2563" gradientTransform="matrix(1 0 0 1 -395.1992 -340.8008)">
			<stop  offset="0" style="stop-color:#FFFFFF"/>
			<stop  offset="0.6398" style="stop-color:#000000"/>
		</linearGradient>
		<polygon fill="url(#SVGID_13_)" stroke="#000000" stroke-miterlimit="10" points="1302.522,1371.513 1284.564,1352.469 
			1266.605,1333.421 1306.143,1314.131 1345.682,1294.84 1324.101,1333.177 		"/>
		
			<linearGradient id="SVGID_14_" gradientUnits="userSpaceOnUse" x1="1570.6653" y1="1750.4568" x2="1613.119" y2="1790.0786" gradientTransform="matrix(1 0 0 1 -395.1992 -340.8008)">
			<stop  offset="0" style="stop-color:#FFFFFF"/>
			<stop  offset="0.6398" style="stop-color:#000000"/>
		</linearGradient>
		<polygon fill="url(#SVGID_14_)" stroke="#000000" stroke-miterlimit="10" points="1210.65,1384.842 1229.583,1402.916 
			1248.514,1420.995 1210.045,1442.334 1171.573,1463.676 1191.113,1424.256 		"/>
		
			<linearGradient id="SVGID_15_" gradientUnits="userSpaceOnUse" x1="1689.8215" y1="1791.4929" x2="1722.6193" y2="1754.1825" gradientTransform="matrix(1 0 0 1 -395.1992 -340.8008)">
			<stop  offset="0" style="stop-color:#FFFFFF"/>
			<stop  offset="0.6398" style="stop-color:#000000"/>
		</linearGradient>
		<polygon fill="url(#SVGID_15_)" stroke="#000000" stroke-miterlimit="10" points="1265.369,1422.087 1282.076,1401.939 
			1298.79,1381.79 1322.763,1418.675 1346.739,1455.565 1306.053,1438.824 		"/>
	</g>
	<g id="Ebene_7">
	</g>
	<g id="Ebene_6">
		<circle fill="#B2B2B2" stroke="#000000" stroke-miterlimit="10" cx="1255.656" cy="1377.018" r="49.339"/>
		<circle fill="#DADADA" stroke="#000000" stroke-miterlimit="10" cx="1255.348" cy="1376.796" r="15.243"/>
	</g>
</g>
<g id="Ebene_2_1_">
	
		<rect x="-130.822" y="-103.816" opacity="0.8" fill="#BBD5DB" stroke="#000000" stroke-miterlimit="10" width="2871.287" height="2742.274"/>
</g>
</svg>
